<svg width="597" height="96" viewBox="0 0 597 96" fill="none" xmlns="http://www.w3.org/2000/svg">
<g clip-path="url(#clip0_9_23774)">
<path d="M3.21814 7.37401V28.4273C3.21814 34.8395 11.0313 38.2594 15.806 33.7708L38.5945 12.7175C43.5862 8.1221 40.3307 0 33.4942 0H10.7058C6.58215 0 3.21814 3.31296 3.21814 7.37401Z" fill="#4F9CF9"/>
<path d="M111.083 0H88.295C81.567 0 78.203 8.1221 83.1947 12.7175L105.983 33.7708C110.758 38.1525 118.571 34.8395 118.571 28.4273V7.37401C118.571 3.31296 115.207 0 111.083 0Z" fill="#4F9CF9"/>
<path d="M66.0491 51.4043L105.983 88.3812C110.758 92.7629 118.571 89.4499 118.571 83.0378V61.7707C118.571 59.7402 117.703 57.8165 116.184 56.4272L66.0491 9.93888C63.1192 7.26714 58.67 7.26714 55.7401 9.93888L5.6055 56.4272C4.08627 57.8165 3.21814 59.7402 3.21814 61.7707V83.0378C3.21814 89.4499 11.0313 92.8698 15.806 88.3812L55.7401 51.4043C58.67 48.7326 63.1192 48.7326 66.0491 51.4043Z" fill="#4F9CF9"/>
</g>
<path d="M164.41 77.2059L151.453 29.5909H164.813L172.191 61.5822H172.625L180.313 29.5909H193.426L201.237 61.3962H201.64L208.894 29.5909H222.224L209.297 77.2059H195.317L187.133 47.2605H186.544L178.36 77.2059H164.41Z" fill="#4F9CF9"/>
<path d="M242.474 49.6785V77.2059H229.269V13.7193H242.102V37.9917H242.66C243.735 35.1811 245.471 32.9802 247.868 31.3889C250.265 29.7769 253.272 28.9709 256.889 28.9709C260.196 28.9709 263.079 29.6942 265.538 31.1409C268.018 32.5668 269.94 34.6231 271.304 37.3097C272.688 39.9757 273.37 43.1686 273.35 46.8885V77.2059H260.144V49.2445C260.165 46.3099 259.421 44.0263 257.912 42.3936C256.424 40.761 254.337 39.9447 251.65 39.9447C249.852 39.9447 248.261 40.327 246.876 41.0917C245.512 41.8563 244.438 42.9723 243.652 44.4396C242.888 45.8862 242.495 47.6325 242.474 49.6785Z" fill="#4F9CF9"/>
<path d="M283.742 77.2059V29.5909H296.948V77.2059H283.742ZM290.376 23.453C288.413 23.453 286.728 22.8021 285.323 21.5001C283.938 20.1774 283.246 18.5965 283.246 16.7572C283.246 14.9386 283.938 13.3783 285.323 12.0763C286.728 10.7536 288.413 10.0923 290.376 10.0923C292.339 10.0923 294.013 10.7536 295.398 12.0763C296.803 13.3783 297.506 14.9386 297.506 16.7572C297.506 18.5965 296.803 20.1774 295.398 21.5001C294.013 22.8021 292.339 23.453 290.376 23.453Z" fill="#4F9CF9"/>
<path d="M332.853 29.5909V39.5107H304.178V29.5909H332.853ZM310.688 18.1832H323.894V62.5742C323.894 63.7935 324.08 64.7442 324.452 65.4261C324.824 66.0875 325.341 66.5524 326.002 66.8211C326.684 67.0898 327.469 67.2241 328.358 67.2241C328.978 67.2241 329.598 67.1724 330.218 67.0691C330.838 66.9451 331.313 66.8521 331.644 66.7901L333.721 76.6169C333.06 76.8236 332.13 77.0612 330.931 77.3299C329.732 77.6192 328.275 77.7949 326.56 77.8569C323.377 77.9809 320.587 77.5572 318.19 76.5859C315.814 75.6146 313.964 74.1059 312.641 72.06C311.319 70.014 310.668 67.4308 310.688 64.3102V18.1832Z" fill="#4F9CF9"/>
<path d="M362.643 78.1359C357.745 78.1359 353.529 77.1439 349.995 75.1599C346.482 73.1553 343.775 70.324 341.874 66.6661C339.972 62.9875 339.022 58.6373 339.022 53.6154C339.022 48.7175 339.972 44.4189 341.874 40.7197C343.775 37.0204 346.451 34.1375 349.902 32.0709C353.374 30.0042 357.446 28.9709 362.116 28.9709C365.257 28.9709 368.182 29.4772 370.889 30.4899C373.617 31.4819 375.994 32.9802 378.019 34.9848C380.065 36.9894 381.656 39.5107 382.793 42.5486C383.929 45.5659 384.498 49.0998 384.498 53.1504V56.7773H344.292V48.5935H372.067C372.067 46.6922 371.654 45.0079 370.827 43.5406C370 42.0733 368.853 40.9263 367.386 40.0997C365.939 39.2524 364.255 38.8287 362.333 38.8287C360.329 38.8287 358.551 39.2937 357.001 40.2237C355.472 41.133 354.273 42.3626 353.405 43.9126C352.537 45.4419 352.093 47.1469 352.072 49.0275V56.8083C352.072 59.1643 352.506 61.1999 353.374 62.9152C354.263 64.6305 355.513 65.9531 357.125 66.8831C358.737 67.8131 360.649 68.2781 362.86 68.2781C364.327 68.2781 365.671 68.0714 366.89 67.6581C368.109 67.2448 369.153 66.6248 370.021 65.7981C370.889 64.9715 371.55 63.9588 372.005 62.7602L384.219 63.5662C383.599 66.5008 382.328 69.0634 380.406 71.254C378.505 73.424 376.045 75.1186 373.028 76.3379C370.031 77.5365 366.57 78.1359 362.643 78.1359Z" fill="#4F9CF9"/>
<path d="M393.116 95.0615V29.5909H406.135V37.5887H406.724C407.303 36.3074 408.14 35.0055 409.235 33.6828C410.351 32.3395 411.798 31.2235 413.575 30.3349C415.373 29.4256 417.605 28.9709 420.271 28.9709C423.743 28.9709 426.946 29.8802 429.881 31.6989C432.815 33.4968 435.161 36.2144 436.918 39.8517C438.674 43.4683 439.553 48.0045 439.553 53.4604C439.553 58.7716 438.695 63.2562 436.98 66.9141C435.285 70.5514 432.97 73.3103 430.036 75.1909C427.122 77.0509 423.857 77.9809 420.24 77.9809C417.677 77.9809 415.497 77.5572 413.699 76.7099C411.922 75.8626 410.465 74.7983 409.328 73.517C408.192 72.215 407.324 70.9027 406.724 69.58H406.321V95.0615H393.116ZM406.042 53.3984C406.042 56.2297 406.435 58.6993 407.22 60.8072C408.006 62.9152 409.142 64.5582 410.63 65.7361C412.118 66.8934 413.926 67.4721 416.055 67.4721C418.204 67.4721 420.023 66.8831 421.511 65.7051C422.999 64.5065 424.125 62.8532 424.89 60.7452C425.675 58.6166 426.068 56.1677 426.068 53.3984C426.068 50.6498 425.686 48.2318 424.921 46.1446C424.156 44.0573 423.03 42.4246 421.542 41.2467C420.054 40.0687 418.225 39.4797 416.055 39.4797C413.906 39.4797 412.087 40.048 410.599 41.1847C409.132 42.3213 408.006 43.9333 407.22 46.0206C406.435 48.1078 406.042 50.5671 406.042 53.3984Z" fill="#4F9CF9"/>
<path d="M461.934 78.1049C458.896 78.1049 456.189 77.5779 453.812 76.5239C451.436 75.4492 449.555 73.8683 448.17 71.781C446.806 69.673 446.124 67.0484 446.124 63.9072C446.124 61.2619 446.61 59.0403 447.581 57.2423C448.553 55.4444 449.875 53.9977 451.549 52.9024C453.223 51.8071 455.125 50.9804 457.253 50.4225C459.402 49.8645 461.655 49.4718 464.011 49.2445C466.78 48.9552 469.012 48.6865 470.707 48.4385C472.401 48.1698 473.631 47.7772 474.396 47.2605C475.16 46.7439 475.543 45.9792 475.543 44.9666V44.7806C475.543 42.8173 474.923 41.2983 473.683 40.2237C472.464 39.149 470.728 38.6117 468.475 38.6117C466.098 38.6117 464.207 39.1387 462.802 40.1927C461.397 41.226 460.467 42.528 460.012 44.0986L447.798 43.1066C448.418 40.2133 449.638 37.7127 451.456 35.6048C453.275 33.4762 455.621 31.8435 458.493 30.7069C461.386 29.5496 464.734 28.9709 468.537 28.9709C471.182 28.9709 473.714 29.2809 476.132 29.9009C478.57 30.5209 480.73 31.4819 482.611 32.7838C484.512 34.0858 486.01 35.7598 487.105 37.8057C488.201 39.831 488.748 42.2593 488.748 45.0906V77.2059H476.225V70.603H475.853C475.088 72.091 474.065 73.4033 472.784 74.5399C471.503 75.6559 469.963 76.5342 468.165 77.1749C466.367 77.7949 464.29 78.1049 461.934 78.1049ZM465.716 68.9911C467.659 68.9911 469.374 68.6087 470.862 67.8441C472.35 67.0588 473.517 66.0048 474.365 64.6822C475.212 63.3595 475.636 61.8612 475.636 60.1873V55.1344C475.222 55.403 474.654 55.651 473.931 55.8783C473.228 56.085 472.432 56.2813 471.544 56.4673C470.655 56.6327 469.767 56.7877 468.878 56.9323C467.989 57.0563 467.183 57.17 466.46 57.2733C464.91 57.5006 463.556 57.8623 462.399 58.3583C461.242 58.8543 460.343 59.5259 459.702 60.3732C459.061 61.1999 458.741 62.2332 458.741 63.4732C458.741 65.2711 459.392 66.6454 460.694 67.5961C462.017 68.5261 463.691 68.9911 465.716 68.9911Z" fill="#4F9CF9"/>
<path d="M520.507 78.1359C515.63 78.1359 511.435 77.1026 507.922 75.0359C504.429 72.9486 501.742 70.0554 499.862 66.3561C498.002 62.6569 497.072 58.3996 497.072 53.5844C497.072 48.7072 498.012 44.4293 499.893 40.7507C501.794 37.0514 504.491 34.1685 507.984 32.1019C511.476 30.0146 515.63 28.9709 520.445 28.9709C524.599 28.9709 528.236 29.7252 531.357 31.2339C534.478 32.7425 536.947 34.8608 538.766 37.5887C540.585 40.3167 541.587 43.5199 541.773 47.1985H529.311C528.96 44.8219 528.03 42.9103 526.521 41.4637C525.033 39.9964 523.08 39.2627 520.662 39.2627C518.616 39.2627 516.829 39.8207 515.299 40.9367C513.791 42.032 512.613 43.6336 511.765 45.7416C510.918 47.8495 510.495 50.4018 510.495 53.3984C510.495 56.4363 510.908 59.0196 511.734 61.1482C512.582 63.2768 513.77 64.8992 515.299 66.0151C516.829 67.1311 518.616 67.6891 520.662 67.6891C522.171 67.6891 523.525 67.3791 524.723 66.7591C525.943 66.1391 526.945 65.2401 527.73 64.0622C528.536 62.8635 529.063 61.4272 529.311 59.7533H541.773C541.566 63.3905 540.574 66.5938 538.797 69.3631C537.04 72.1117 534.612 74.2609 531.512 75.8109C528.412 77.3609 524.744 78.1359 520.507 78.1359Z" fill="#4F9CF9"/>
<path d="M571.927 78.1359C567.03 78.1359 562.814 77.1439 559.28 75.1599C555.766 73.1553 553.059 70.324 551.158 66.6661C549.257 62.9875 548.306 58.6373 548.306 53.6154C548.306 48.7175 549.257 44.4189 551.158 40.7197C553.059 37.0204 555.735 34.1375 559.187 32.0709C562.659 30.0042 566.73 28.9709 571.4 28.9709C574.542 28.9709 577.466 29.4772 580.173 30.4899C582.901 31.4819 585.278 32.9802 587.303 34.9848C589.349 36.9894 590.94 39.5107 592.077 42.5486C593.214 45.5659 593.782 49.0998 593.782 53.1504V56.7773H553.576V48.5935H581.351C581.351 46.6922 580.938 45.0079 580.111 43.5406C579.285 42.0733 578.138 40.9263 576.67 40.0997C575.224 39.2524 573.539 38.8287 571.617 38.8287C569.613 38.8287 567.836 39.2937 566.286 40.2237C564.756 41.133 563.558 42.3626 562.69 43.9126C561.822 45.4419 561.377 47.1469 561.357 49.0275V56.8083C561.357 59.1643 561.791 61.1999 562.659 62.9152C563.547 64.6305 564.798 65.9531 566.41 66.8831C568.022 67.8131 569.933 68.2781 572.144 68.2781C573.612 68.2781 574.955 68.0714 576.174 67.6581C577.394 67.2448 578.437 66.6248 579.305 65.7981C580.173 64.9715 580.835 63.9588 581.289 62.7602L593.503 63.5662C592.883 66.5008 591.612 69.0634 589.69 71.254C587.789 73.424 585.329 75.1186 582.312 76.3379C579.316 77.5365 575.854 78.1359 571.927 78.1359Z" fill="#4F9CF9"/>
<defs>
<clipPath id="clip0_9_23774">
<rect width="115.353" height="90.4118" fill="white" transform="translate(3.21814)"/>
</clipPath>
</defs>
</svg>
